<svg width="1200" height="630" viewBox="0 0 1200 630" fill="none" xmlns="http://www.w3.org/2000/svg">
  <!-- Background -->
  <rect width="1200" height="630" fill="url(#gradient)"/>
  
  <!-- Gradient Definition -->
  <defs>
    <linearGradient id="gradient" x1="0%" y1="0%" x2="100%" y2="100%">
      <stop offset="0%" style="stop-color:#1e293b;stop-opacity:1" />
      <stop offset="100%" style="stop-color:#334155;stop-opacity:1" />
    </linearGradient>
    <filter id="shadow" x="-20%" y="-20%" width="140%" height="140%">
      <feDropShadow dx="0" dy="8" stdDeviation="12" flood-opacity="0.15"/>
    </filter>
  </defs>
  
  <!-- Main Container -->
  <rect x="80" y="80" width="1040" height="470" rx="24" fill="white" filter="url(#shadow)"/>
  
  <!-- Header -->
  <rect x="80" y="80" width="1040" height="80" rx="24" fill="#f8fafc"/>
  <rect x="80" y="136" width="1040" height="2" fill="#e2e8f0"/>
  
  <!-- App Title -->
  <text x="120" y="135" font-family="Arial, sans-serif" font-size="32" font-weight="bold" fill="#1e293b">My Task Board</text>
  
  <!-- Subtitle -->
  <text x="120" y="200" font-family="Arial, sans-serif" font-size="24" font-weight="500" fill="#64748b">Free Kanban Task Management</text>
  <text x="120" y="230" font-family="Arial, sans-serif" font-size="18" fill="#64748b">Drag &amp; drop simplicity • No limits • No ads</text>
  
  <!-- Kanban Columns -->
  <!-- Column 1: Design -->
  <rect x="120" y="280" width="280" height="240" rx="12" fill="#dbeafe" stroke="#3b82f6" stroke-width="1"/>
  <rect x="120" y="280" width="280" height="40" rx="12" fill="#3b82f6"/>
  <text x="170" y="305" font-family="Arial, sans-serif" font-size="16" font-weight="600" fill="white">Design</text>
  <circle cx="380" cy="300" r="8" fill="white" opacity="0.8"/>
  <text x="392" y="305" font-family="Arial, sans-serif" font-size="12" fill="white">3</text>
  
  <!-- Tasks in Design Column -->
  <rect x="140" y="340" width="240" height="32" rx="6" fill="white" stroke="#e5e7eb"/>
  <circle cx="152" cy="356" r="4" fill="#f59e0b"/>
  <text x="168" y="360" font-family="Arial, sans-serif" font-size="12" fill="#374151">UI Mockups</text>
  
  <rect x="140" y="380" width="240" height="32" rx="6" fill="white" stroke="#e5e7eb"/>
  <circle cx="152" cy="396" r="4" fill="#ef4444"/>
  <text x="168" y="400" font-family="Arial, sans-serif" font-size="12" fill="#374151">Brand Guidelines</text>
  
  <rect x="140" y="420" width="240" height="32" rx="6" fill="white" stroke="#e5e7eb"/>
  <circle cx="152" cy="436" r="4" fill="#10b981"/>
  <text x="168" y="440" font-family="Arial, sans-serif" font-size="12" fill="#374151">User Testing</text>
  
  <!-- Column 2: Development -->
  <rect x="420" y="280" width="280" height="240" rx="12" fill="#fef3c7" stroke="#f59e0b" stroke-width="1"/>
  <rect x="420" y="280" width="280" height="40" rx="12" fill="#f59e0b"/>
  <text x="450" y="305" font-family="Arial, sans-serif" font-size="16" font-weight="600" fill="white">Development</text>
  <circle cx="680" cy="300" r="8" fill="white" opacity="0.8"/>
  <text x="692" y="305" font-family="Arial, sans-serif" font-size="12" fill="white">2</text>
  
  <!-- Tasks in Development Column -->
  <rect x="440" y="340" width="240" height="32" rx="6" fill="white" stroke="#e5e7eb"/>
  <circle cx="452" cy="356" r="4" fill="#3b82f6"/>
  <text x="468" y="360" font-family="Arial, sans-serif" font-size="12" fill="#374151">API Integration</text>
  
  <rect x="440" y="380" width="240" height="32" rx="6" fill="white" stroke="#e5e7eb"/>
  <circle cx="452" cy="396" r="4" fill="#8b5cf6"/>
  <text x="468" y="400" font-family="Arial, sans-serif" font-size="12" fill="#374151">Database Setup</text>
  
  <!-- Column 3: Launch -->
  <rect x="720" y="280" width="280" height="240" rx="12" fill="#d1fae5" stroke="#10b981" stroke-width="1"/>
  <rect x="720" y="280" width="280" height="40" rx="12" fill="#10b981"/>
  <text x="780" y="305" font-family="Arial, sans-serif" font-size="16" font-weight="600" fill="white">Launch</text>
  <circle cx="980" cy="300" r="8" fill="white" opacity="0.8"/>
  <text x="992" y="305" font-family="Arial, sans-serif" font-size="12" fill="white">1</text>
  
  <!-- Tasks in Launch Column -->
  <rect x="740" y="340" width="240" height="32" rx="6" fill="white" stroke="#e5e7eb"/>
  <circle cx="752" cy="356" r="4" fill="#10b981"/>
  <text x="768" y="360" font-family="Arial, sans-serif" font-size="12" fill="#374151">Deploy to Production</text>
  
  <!-- Features badges at bottom -->
  <rect x="400" y="580" width="120" height="28" rx="14" fill="#1e293b"/>
  <text x="460" y="598" font-family="Arial, sans-serif" font-size="12" font-weight="500" fill="white" text-anchor="middle">✨ Free Forever</text>
  
  <rect x="540" y="580" width="120" height="28" rx="14" fill="#3b82f6"/>
  <text x="600" y="598" font-family="Arial, sans-serif" font-size="12" font-weight="500" fill="white" text-anchor="middle">🚀 No Limits</text>
  
  <rect x="680" y="580" width="120" height="28" rx="14" fill="#10b981"/>
  <text x="740" y="598" font-family="Arial, sans-serif" font-size="12" font-weight="500" fill="white" text-anchor="middle">📱 Mobile Ready</text>
</svg>